<?xml version="1.0" encoding="UTF-8" standalone="no"?>
<svg width="1489px" height="1841px" viewBox="0 0 1489 1841" version="1.1" xmlns="http://www.w3.org/2000/svg" xmlns:xlink="http://www.w3.org/1999/xlink" xmlns:sketch="http://www.bohemiancoding.com/sketch/ns">
    <!-- Generator: Sketch 3.0.4 (8053) - http://www.bohemiancoding.com/sketch -->
    <title>level01</title>
    <desc>Created with Sketch.</desc>
    <defs></defs>
    <g id="level01" stroke="none" stroke-width="1" fill="none" fill-rule="evenodd" sketch:type="MSPage">
        <g id="Background" sketch:type="MSLayerGroup" stroke="#979797" fill="#F9F9E2">
            <path d="M0.25,559.371364 L225.78125,0.0452309666 L393.8125,190.264061 L567.75,207.429213 L640.9375,464.996953 L696.375,315.960917 L727.78125,405.608693 L834.46875,443.557474 L996.28125,345.112275 L1148.3125,127.867943 L1298.84375,126.149166 L1407.59375,299.428999 L1488.78125,624.345648 L1488.78125,846.090462 L1091.65625,668.265629 L590.515625,668.265629 L270.3125,725.765629 L0.25,559.371364 Z" id="Path-6" sketch:type="MSShapeGroup"></path>
            <path d="M0.46875,1239.55747 L162.28125,1141.11228 L314.3125,923.867943 L464.84375,922.149166 L573.59375,1095.429 L975.5625,1113 L573.59375,1303.6875 L257.65625,1464.26563 L0.46875,1239.55747 Z" id="Path-7" sketch:type="MSShapeGroup"></path>
        </g>
        <g id="Triggers" sketch:type="MSLayerGroup" transform="translate(76.000000, 96.000000)" stroke="#979797" fill="#FFD7C8">
            <rect id="leave" sketch:type="MSShapeGroup" transform="translate(17.000000, 872.500000) scale(-1, 1) translate(-17.000000, -872.500000) " x="9" y="0" width="16" height="1745"></rect>
            <rect id="leave" sketch:type="MSShapeGroup" transform="translate(610.500000, 24.000000) scale(1, -1) translate(-610.500000, -24.000000) " x="0" y="18" width="1221" height="12"></rect>
            <rect id="leave-2" sketch:type="MSShapeGroup" transform="translate(611.500000, 1734.000000) scale(1, -1) translate(-611.500000, -1734.000000) " x="1" y="1728" width="1221" height="12"></rect>
            <rect id="leave" sketch:type="MSShapeGroup" x="1211" y="9" width="10" height="1736"></rect>
        </g>
        <g id="Surface" sketch:type="MSLayerGroup" transform="translate(399.000000, 1010.000000)" stroke="#979797" fill="#C4BFBF">
            <path d="M277.855623,397.630289 L410.397699,228.065835 L405.729092,86.5934245 L501.570777,2.20279664 L637.631606,0.466882998 L691.586911,250.801209 L634.551828,444.281508 L277.855623,397.630289 L277.855623,397.630289 Z" id="Path-2" sketch:type="MSShapeGroup"></path>
            <path d="M45.5347162,222.886564 L204.141524,222.710544 L215.946112,347.260304 L89.7433,406.930703 L-0.312521223,292.898626 L45.5347162,222.886564 L45.5347162,222.886564 Z" id="Path-3" sketch:type="MSShapeGroup"></path>
        </g>
        <g id="Pads" sketch:type="MSLayerGroup" transform="translate(409.000000, 945.000000)" stroke="#979797" fill="#D8D8D8">
            <rect id="Rectangle-1" sketch:type="MSShapeGroup" x="446" y="0" width="121" height="10"></rect>
            <rect id="Rectangle-2" sketch:type="MSShapeGroup" x="0" y="259" width="116" height="10"></rect>
        </g>
        <g id="Spawns" sketch:type="MSLayerGroup" transform="translate(707.000000, 344.000000)" stroke="#979797" fill="#DBD5B9">
            <rect id="player" sketch:type="MSShapeGroup" x="0" y="0" width="43" height="39"></rect>
        </g>
        <g id="Shadows" sketch:type="MSLayerGroup" transform="translate(524.000000, 496.000000)" stroke="#979797" fill="#979797">
            <path d="M133.140625,252.171875 L14.0078125,255.140625 L-0.3671875,279.507812 L38.234375,323 L58.4609375,288.398438 L133.140625,252.171875 Z" id="Path-5" sketch:type="MSShapeGroup"></path>
            <path d="M557.796875,0.3671875 L490.53125,8.8125 L426.8125,43.484375 L424.8125,106.820313 L390.21875,172.539062 L366.578125,207.132813 L436.21875,220.984375 L494.601562,184.390625 L527.195312,121.125 L573.203125,58.3671875 L557.796875,0.3671875 Z" id="Path-5" sketch:type="MSShapeGroup"></path>
        </g>
    </g>
</svg>