<?xml version="1.0" encoding="UTF-8" standalone="no"?>
<svg width="1937px" height="1389px" viewBox="0 0 1937 1389" version="1.1" xmlns="http://www.w3.org/2000/svg" xmlns:xlink="http://www.w3.org/1999/xlink" xmlns:sketch="http://www.bohemiancoding.com/sketch/ns">
    <!-- Generator: Sketch 3.0.4 (8053) - http://www.bohemiancoding.com/sketch -->
    <title>level00</title>
    <desc>Created with Sketch.</desc>
    <defs></defs>
    <g id="level00" stroke="none" stroke-width="1" fill="none" fill-rule="evenodd" sketch:type="MSPage">
        <g id="Background" sketch:type="MSLayerGroup" transform="translate(261.000000, 1.000000)" stroke="#979797" fill="#F9F9E2">
            <path d="M0.25,772.9375 L225.78125,0.0625 L393.8125,262.90625 L567.75,286.625 L640.9375,642.53125 L696.375,436.59375 L727.78125,560.46875 L834.46875,612.90625 L996.28125,476.875 L1148.3125,176.6875 L1298.84375,174.3125 L1407.59375,413.75 L1488.78125,862.71875 L1488.78125,1169.125 L13,1113.71875 L0.25,772.9375 Z" id="Path-6" sketch:type="MSShapeGroup"></path>
        </g>
        <g id="Triggers" sketch:type="MSLayerGroup" transform="translate(598.000000, 96.000000)" stroke="#979797" fill="#FFD7C8">
            <rect id="leave" sketch:type="MSShapeGroup" x="0" y="1" width="19" height="220"></rect>
            <rect id="leave" sketch:type="MSShapeGroup" x="0" y="0" width="751" height="19"></rect>
            <rect id="leave" sketch:type="MSShapeGroup" x="741" y="0" width="19" height="220"></rect>
        </g>
        <g id="Surface" sketch:type="MSLayerGroup" transform="translate(1.000000, 312.000000)" stroke="#979797" fill="#8B715A">
            <path d="M619.015625,298.13281 L675.96875,345.078122 L724.800781,321.992185 L738.363281,158.503906 L724.800781,60.359375 L654.585938,5.26171875 L573.027344,5.7421875 L-0.53125,-0.0585356941 L-0.53125,1076.20316 L1934.26562,1076.20318 L1934.26562,-0.0585356941 L1246.77166,-0.0585356941 L1301.88276,55.0525567 L1403.48438,92.7734375 L1429.71094,321.992187 L1422.75,535.953125 L1313.02344,678.789062 L1070.91406,714.9375 L823.914062,711.976562 L592.914063,691.75 L360.421875,572.734372 L523.195313,298.132812 L556.987793,262.305173 L619.015625,298.13281 Z" id="Path-1" sketch:type="MSShapeGroup"></path>
            <path d="M1026.80233,397.835704 L1022.36532,301.396192 L1067.75391,242.685087 L1242.76383,242.685087 L1294.04257,413.33405 L1239.83683,545.22652 L1097.43892,566.687498 L974.578124,566.687498 L900.83528,513.42512 L1026.80233,397.835704 Z" id="Path-2" sketch:type="MSShapeGroup"></path>
            <path d="M466.477739,492.435537 L617.216527,492.315547 L628.435524,577.219155 L508.493264,617.895526 L422.904848,540.161656 L466.477739,492.435537 L466.477739,492.435537 Z" id="Path-3" sketch:type="MSShapeGroup"></path>
        </g>
        <g id="Pads" sketch:type="MSLayerGroup" transform="translate(481.000000, 546.000000)" stroke="#979797" fill="#4990E2">
            <rect id="Two" sketch:type="MSShapeGroup" x="590" y="0" width="171" height="10"></rect>
            <rect id="One" sketch:type="MSShapeGroup" x="0" y="251" width="116" height="10"></rect>
        </g>
        <g id="Spawns" sketch:type="MSLayerGroup" transform="translate(968.000000, 345.000000)" stroke="#979797" fill="#50E3C2">
            <rect id="player" sketch:type="MSShapeGroup" x="0" y="0" width="43" height="39"></rect>
        </g>
        <g id="Shadows" sketch:type="MSLayerGroup" transform="translate(457.000000, 578.000000)" stroke="#979797" fill="#362210">
            <path d="M133.140625,243.171875 L14.0078125,246.140625 L-0.3671875,270.507812 L38.234375,314 L58.4609375,279.398438 L133.140625,243.171875 Z" id="Path-5" sketch:type="MSShapeGroup"></path>
            <path d="M744.796875,0.3671875 L677.53125,8.8125 L613.8125,43.484375 L611.8125,106.820313 L577.21875,172.539062 L553.578125,207.132813 L623.21875,220.984375 L681.601562,184.390625 L714.195312,121.125 L760.203125,58.3671875 L744.796875,0.3671875 Z" id="Path-5" sketch:type="MSShapeGroup"></path>
        </g>
    </g>
</svg>