<?xml version="1.0" encoding="UTF-8" standalone="no"?>
<svg width="1926px" height="2273px" viewBox="0 0 1926 2273" version="1.1" xmlns="http://www.w3.org/2000/svg" xmlns:xlink="http://www.w3.org/1999/xlink" xmlns:sketch="http://www.bohemiancoding.com/sketch/ns">
    <!-- Generator: Sketch 3.0.4 (8053) - http://www.bohemiancoding.com/sketch -->
    <title>level03</title>
    <desc>Created with Sketch.</desc>
    <defs></defs>
    <g id="level03" stroke="none" stroke-width="1" fill="none" fill-rule="evenodd" sketch:type="MSPage">
        <g id="Background" sketch:type="MSLayerGroup" transform="translate(388.000000, 384.000000)" stroke="#979797" fill="#F9F9E2">
            <path d="M-0.0621290801,366.593749 L187.750005,-0.140626475 L380.727003,101.960915 L494.795994,-0.140626475 L563.712676,101.960911 L670.372774,101.960917 L725.343755,211.289061 L670.372746,446.203124 L457.052578,528.281254 L313.82813,398.921874 L-0.0621290801,366.593749 Z" id="Path-6" sketch:type="MSShapeGroup"></path>
            <path d="M676.46875,942.557474 L838.28125,844.112275 L990.3125,626.867943 L1110.10938,798.428997 L1193.625,674.625 L1288.85938,844.112282 L1492.01563,917.437496 L1288.85938,1065.73437 L933.65625,1167.26563 L676.46875,942.557474 Z" id="Path-7" sketch:type="MSShapeGroup"></path>
            <path d="M487.015625,1198.40625 L356.4375,1295.64062 L263.203125,1166.625 L182.46875,1391.3125 L30,1356.59375 L2.375,1502.10938 L127.234375,1464.60938 L112.28125,1634.96875 L209.6875,1654.57812 L283.15625,1495 L363.375,1541.89062 L473.84375,1449.32812 L615.359375,1450.71875 L670.421875,1382.48438 L576.140625,1263.51562 L582.75,1152.39062 L487.015625,1198.40625 Z" id="Path-13" sketch:type="MSShapeGroup"></path>
        </g>
        <g id="Triggers" sketch:type="MSLayerGroup" transform="translate(-20.000000, 0.000000)" stroke="#979797" fill="#FFD7C8">
            <rect id="leave" sketch:type="MSShapeGroup" transform="translate(974.834695, 29.967632) scale(1, -1) translate(-974.834695, -29.967632) " x="9.78504085" y="22.0170358" width="1930.09931" height="15.9011925"></rect>
            <rect id="leave-2" sketch:type="MSShapeGroup" transform="translate(974.834695, 2125.255537) scale(1, -1) translate(-974.834695, -2125.255537) " x="9.78504085" y="2113.63543" width="1930.09931" height="23.2402044"></rect>
            <rect id="leave" sketch:type="MSShapeGroup" x="1933.7687" y="30.5792164" width="12.2313011" height="2123.42078"></rect>
        </g>
        <g id="Surface" sketch:type="MSLayerGroup" transform="translate(0.000000, 58.000000)" stroke="#979797" fill="#8B715A">
            <path d="M0.218751818,0.218750292 L539.078127,0.218750292 L577.586911,281.801209 L577.586913,613.9375 L962.703127,1153.57813 L852.078127,1245.64063 L577.586916,1245.64063 L419.906252,1378.82813 L365.500002,1529.75 L365.500002,1639.3125 L393.265627,1773.125 L530.460939,1870.78516 L686.652346,1911.8125 L852.078127,1911.8125 L852.078127,1773.125 L821.828127,1706.45313 L701.484377,1706.45313 L627.359377,1754.01563 L539.078127,1671.39063 L577.586916,1550.25 L664.046877,1467.57813 L904.203127,1467.57813 L988.765627,1598.42188 L988.765627,2048.21875 L852.078127,2169.09375 L627.359377,2215.82813 L274.234377,2215.82813 L0.218751818,2066.60938 L0.218751818,0.218750292 Z" id="Path-2" sketch:type="MSShapeGroup"></path>
        </g>
        <g id="Pads" sketch:type="MSLayerGroup" transform="translate(688.000000, 1960.000000)" stroke="#979797" fill="#4990E2">
            <rect id="one" sketch:type="MSShapeGroup" x="0" y="0" width="164" height="10"></rect>
        </g>
        <g id="Spawns" sketch:type="MSLayerGroup" transform="translate(1111.000000, 384.000000)" stroke="#979797" fill="#50E3C2">
            <rect id="player" sketch:type="MSShapeGroup" x="0" y="0" width="43" height="39"></rect>
        </g>
        <g id="Shadows" sketch:type="MSLayerGroup" transform="translate(134.000000, 915.000000)" stroke="#979797" fill="#362210">
            <path d="M133.140625,600.171875 L14.0078125,603.140625 L-0.3671875,627.507812 L38.234375,671 L58.4609375,636.398438 L133.140625,600.171875 Z" id="Path-5" sketch:type="MSShapeGroup"></path>
            <path d="M538.796875,0.3671875 L471.53125,8.8125 L407.8125,43.484375 L405.8125,106.820313 L371.21875,172.539062 L347.578125,207.132813 L417.21875,220.984375 L475.601562,184.390625 L508.195312,121.125 L554.203125,58.3671875 L538.796875,0.3671875 Z" id="Path-5" sketch:type="MSShapeGroup"></path>
        </g>
    </g>
</svg>