<?xml version="1.0" encoding="UTF-8" standalone="no"?>
<svg width="2035px" height="1876px" viewBox="0 0 2035 1876" version="1.1" xmlns="http://www.w3.org/2000/svg" xmlns:xlink="http://www.w3.org/1999/xlink" xmlns:sketch="http://www.bohemiancoding.com/sketch/ns">
    <!-- Generator: Sketch 3.0.4 (8053) - http://www.bohemiancoding.com/sketch -->
    <title>level02</title>
    <desc>Created with Sketch.</desc>
    <defs></defs>
    <g id="level02" stroke="none" stroke-width="1" fill="none" fill-rule="evenodd" sketch:type="MSPage">
        <g id="Background" sketch:type="MSLayerGroup" transform="translate(-1040.000000, -315.000000)" stroke="#979797" fill="#F9F9E2">
            <path d="M0.25,559.371364 L225.78125,0.0452309666 L393.8125,190.264061 L567.75,207.429213 L640.9375,464.996953 L696.375,315.960917 L727.78125,405.608693 L834.46875,443.557474 L996.28125,345.112275 L1148.3125,127.867943 L1298.84375,126.149166 L1407.59375,299.428999 L1488.78125,624.345648 L1488.78125,846.090462 L1091.65625,668.265629 L590.515625,668.265629 L270.3125,725.765629 L0.25,559.371364 Z" id="Path-6" sketch:type="MSShapeGroup"></path>
        </g>
        <g id="Triggers" sketch:type="MSLayerGroup" transform="translate(219.000000, 149.000000)" stroke="#979797" fill="#FFD7C8">
            <rect id="leave" sketch:type="MSShapeGroup" transform="translate(610.500000, 6.000000) scale(1, -1) translate(-610.500000, -6.000000) " x="0" y="0" width="1221" height="12"></rect>
        </g>
        <g id="Surface" sketch:type="MSLayerGroup" transform="translate(0.000000, 259.000000)" stroke="#979797" fill="#5B391C">
            <path d="M1226.84375,998.5 L1284.85023,1136.87905 L1426.39939,1137.1506 L1484.28124,998.5 L1565.56249,1137.1506 L1538.84374,1289.14062 L1426.3994,1353.3508 L1200.625,1312.92188 L1120.01472,1197.79688 L1120.01472,998.5 L1226.84375,998.5 Z" id="Path-2" sketch:type="MSShapeGroup"></path>
            <path d="M-0.046875,0.125 L594.15625,81.734375 L649.71875,202.421875 L658.0625,367.390625 L715.015625,607.546875 L609.265625,657.71875 L470.53125,657.71875 L427.46875,602.328125 L367.015625,553.875 L297.5625,557.875 L276.71875,634.984375 L286.453125,726.84375 L381.96875,731 L449.53125,765.0625 L594,877.421875 L761.078125,877.421875 L761.078125,1208.35938 L-0.046875,1208.35938 L-0.046875,0.125 Z" id="Path-6" sketch:type="MSShapeGroup"></path>
            <path d="M1026.95312,490.21875 L1007.51562,613.34375 L1007.51562,731.578125 L1079.40625,767.703125 L1219.375,806.4375 L1253.39062,677.1875 L1234.10938,577.84375 L1214.98438,491 L1123.64062,474.328125 L1026.95312,490.21875 Z" id="Path-7" sketch:type="MSShapeGroup"></path>
            <path d="M1413.92188,482.71875 L1393.07812,543.671875 L1387.53125,651.515625 L1412.53125,762.140625 L1467.76562,778.65625 L1548,778.65625 L1587.9375,683.96875 L1587.9375,573.171875 L1513.26562,517.609375 L1506.3125,455.609375 L1413.92188,482.71875 Z" id="Path-8" sketch:type="MSShapeGroup"></path>
            <path d="M1023.76562,108.625 L1000.14063,187.484375 L995.984375,285.9375 L1059.71875,318.9375 L1181.625,291.15625 L1331.14062,266.15625 L1546.125,278.65625 L1648.23438,302.109375 L1735.75,606.15625 L1759.375,939.03125 L1767.70312,1253.85938 L1727.75,1441.0625 L1345.75,1478.5625 L1086.48438,1418.82812 L867.34375,1307.70312 L758.363281,1206.71875 L1.328125,1206.71875 L1.328125,1626.3125 L2035.375,1614.6875 L2035.20312,93.625 L1023.76562,108.625 Z" id="Path-9" sketch:type="MSShapeGroup"></path>
        </g>
        <g id="Pads" sketch:type="MSLayerGroup" transform="translate(285.000000, 976.000000)" stroke="#979797" fill="#4990E2">
            <rect id="Rectangle-3" sketch:type="MSShapeGroup" x="343" y="147" width="97" height="15"></rect>
            <rect id="Rectangle-1" sketch:type="MSShapeGroup" x="1009" y="414" width="121" height="10"></rect>
            <rect id="Rectangle-2" sketch:type="MSShapeGroup" x="0" y="0" width="97" height="15"></rect>
        </g>
        <g id="Spawns" sketch:type="MSLayerGroup" transform="translate(836.000000, 275.000000)" stroke="#979797" fill="#50E3C2">
            <rect id="player" sketch:type="MSShapeGroup" x="0" y="0" width="43" height="39"></rect>
        </g>
    </g>
</svg>