<?xml version="1.0" encoding="UTF-8" standalone="no"?>
<svg width="1594px" height="1841px" viewBox="0 0 1594 1841" version="1.1" xmlns="http://www.w3.org/2000/svg" xmlns:xlink="http://www.w3.org/1999/xlink" xmlns:sketch="http://www.bohemiancoding.com/sketch/ns">
    <!-- Generator: Sketch 3.0.4 (8053) - http://www.bohemiancoding.com/sketch -->
    <title>level01</title>
    <desc>Created with Sketch.</desc>
    <defs></defs>
    <g id="level01" stroke="none" stroke-width="1" fill="none" fill-rule="evenodd" sketch:type="MSPage">
        <g id="Background" sketch:type="MSLayerGroup" transform="translate(127.000000, 108.000000)" stroke="#979797" fill="#F9F9E2">
            <path d="M-0.0625,472.593749 L232.09375,0.296873525 L383,207.960915 L497.75,105.859374 L567.078125,207.960911 L674.375,207.960917 L674.375,560.265629 L459.78125,634.281254 L248.3125,617.765629 L-0.0625,472.593749 Z" id="Path-6" sketch:type="MSShapeGroup"></path>
            <path d="M676.46875,1048.55747 L838.28125,950.112275 L990.3125,732.867943 L1110.10938,904.428997 L1193.625,780.625 L1288.85938,950.112282 L1492.01563,1023.4375 L1288.85938,1171.73437 L933.65625,1273.26563 L676.46875,1048.55747 Z" id="Path-7" sketch:type="MSShapeGroup"></path>
            <path d="M487.015625,1304.40625 L356.4375,1401.64062 L263.203125,1272.625 L182.46875,1497.3125 L30,1462.59375 L2.375,1608.10938 L127.234375,1570.60938 L112.28125,1740.96875 L209.6875,1760.57812 L283.15625,1601 L363.375,1647.89062 L473.84375,1555.32812 L615.359375,1556.71875 L670.421875,1488.48438 L576.140625,1369.51562 L582.75,1258.39062 L487.015625,1304.40625 Z" id="Path-13" sketch:type="MSShapeGroup"></path>
        </g>
        <g id="Triggers" sketch:type="MSLayerGroup" transform="translate(0.000000, 96.000000)" stroke="#979797" fill="#FFD7C8">
            <rect id="leave" sketch:type="MSShapeGroup" transform="translate(8.000000, 872.500000) scale(-1, 1) translate(-8.000000, -872.500000) " x="0" y="0" width="16" height="1745"></rect>
            <rect id="leave" sketch:type="MSShapeGroup" transform="translate(797.000000, 24.500000) scale(1, -1) translate(-797.000000, -24.500000) " x="8" y="18" width="1578" height="13"></rect>
            <rect id="leave-2" sketch:type="MSShapeGroup" transform="translate(797.000000, 1737.500000) scale(1, -1) translate(-797.000000, -1737.500000) " x="8" y="1728" width="1578" height="19"></rect>
            <rect id="leave" sketch:type="MSShapeGroup" x="1581" y="25" width="10" height="1736"></rect>
        </g>
        <g id="Surface" sketch:type="MSLayerGroup" transform="translate(0.000000, 298.000000)" stroke="#979797" fill="#8B715A">
            <path d="M894.964083,1055.4392 L919.397699,940.065835 L914.729092,798.593424 L1010.57078,714.202797 L1146.63161,712.466883 L1200.58691,962.801209 L1143.55183,1156.28151 L1010.57077,1139.07592 L894.964083,1055.4392 Z" id="Path-2" sketch:type="MSShapeGroup"></path>
            <path d="M745.454045,1323.71054 L757.258633,1448.2603 L631.055821,1507.9307 L541,1393.89863 L586.847237,1323.88656 L745.454045,1323.71054 Z" id="Path-3" sketch:type="MSShapeGroup"></path>
            <path d="M1010.82172,272.391904 L1053.78114,272.391904 L1130.5902,287.295432 L1178.52367,385.835692 L1178.52367,456.757853 L1119.83171,486.471761 L1008.23224,489.880943 L917.246201,425.385928 L928.004685,331.614796 L974.485061,295.371281 L1010.82172,272.391904 Z" id="Path-8" sketch:type="MSShapeGroup"></path>
            <path d="M535.82036,183.750512 L373.594121,185.604138 L301.451733,271.993369 L316.252799,344.289435 L396.880879,367.389914 L535.820355,354.228232 L642.846316,301.236882 L674.311389,259.935481 L725.449117,238.604808 L713.032616,185.604138 L661.159026,168.316047 L535.82036,183.750512 Z" id="Path-7" sketch:type="MSShapeGroup"></path>
            <path d="M186.198896,1238.83641 L274.707219,1226.61552 L368.282742,1149.60154 L368.282742,1038.10453 L352.652668,884.90558 L261.75978,830.349355 L170.037883,792.252213 L79.8715422,803.84902 L0.482314566,994.744577 L25.3246318,1165.12915 L111.345929,1232.9402 L186.198896,1238.83641 Z" id="Path-9" sketch:type="MSShapeGroup"></path>
            <path d="M368.192931,682.276157 L380.609432,735.174365 L441.490342,759.914221 L586.110446,792.208302 L677.105796,720.997385 L715.92017,625.959453 L757.128423,570.676681 L651.332008,523.57222 L471.510299,523.57222 L415.520945,583.195644 L373.688607,618.079213 L368.192931,682.276157 Z" id="Path-10" sketch:type="MSShapeGroup"></path>
            <path d="M1498.17837,465.010675 L1435.44383,440.997366 L1390.91954,443.381931 L1364.62413,498.767165 L1346.40457,652.599512 L1363.69266,858.696667 L1392.57756,986.019364 L1366.17969,1179.70002 L1329.74056,1315.10788 L1312.98341,1415.21301 L1391.55294,1502.59425 L1520.73858,1508.388 L1594.24092,1447.20902 L1585.95083,1282.51573 L1514.63745,1073.10254 L1487.30811,717.942165 L1533.68602,534.209616 L1498.17837,465.010675 Z" id="Path-11" sketch:type="MSShapeGroup"></path>
            <path d="M1426.68668,21.3393125 L1384.64942,-0.093822889 L1334.13578,16.467722 L1321.70996,108.282766 L1350.59486,246.578185 L1348.10783,331.779789 L1387.03398,359.835679 L1435.694,354.861627 L1460.43386,282.914848 L1425.75521,100.001993 L1426.68668,21.3393125 Z" id="Path-12" sketch:type="MSShapeGroup"></path>
        </g>
        <g id="Pads" sketch:type="MSLayerGroup" transform="translate(482.000000, 815.000000)" stroke="#979797" fill="#4990E2">
            <rect id="three" sketch:type="MSShapeGroup" x="0" y="0" width="164" height="10"></rect>
            <rect id="two" sketch:type="MSShapeGroup" x="528" y="190" width="121" height="10"></rect>
            <rect id="one" sketch:type="MSShapeGroup" x="123" y="800" width="116" height="10"></rect>
        </g>
        <g id="Spawns" sketch:type="MSLayerGroup" transform="translate(850.000000, 214.000000)" stroke="#979797" fill="#50E3C2">
            <rect id="player" sketch:type="MSShapeGroup" x="0" y="0" width="43" height="39"></rect>
        </g>
        <g id="Shadows" sketch:type="MSLayerGroup" transform="translate(594.000000, 1051.000000)" stroke="#979797" fill="#362210">
            <path d="M133.140625,600.171875 L14.0078125,603.140625 L-0.3671875,627.507812 L38.234375,671 L58.4609375,636.398438 L133.140625,600.171875 Z" id="Path-5" sketch:type="MSShapeGroup"></path>
            <path d="M538.796875,0.3671875 L471.53125,8.8125 L407.8125,43.484375 L405.8125,106.820313 L371.21875,172.539062 L347.578125,207.132813 L417.21875,220.984375 L475.601562,184.390625 L508.195312,121.125 L554.203125,58.3671875 L538.796875,0.3671875 Z" id="Path-5" sketch:type="MSShapeGroup"></path>
        </g>
    </g>
</svg>